<svg width="55" height="78" viewBox="0 0 55 78" fill="none" xmlns="http://www.w3.org/2000/svg">
<path d="M47 49.5L40.375 43H13.75C9.91667 43 6.66667 41.6667 4 39C1.33333 36.3333 0 33.0833 0 29.25C0 26.0417 0.989583 23.1875 2.96875 20.6875C4.94792 18.1875 7.5 16.5833 10.625 15.875C10.75 15.5417 10.875 15.2188 11 14.9062C11.125 14.5938 11.25 14.25 11.375 13.875L1 3.5L4.5 0L50.5 46L47 49.5ZM51.5 39.875L17.625 6.0625C19.0833 5.0625 20.6354 4.30208 22.2812 3.78125C23.9271 3.26042 25.6667 3 27.5 3C32.375 3 36.5104 4.69792 39.9062 8.09375C43.3021 11.4896 45 15.625 45 20.5C47.875 20.8333 50.2604 22.0729 52.1562 24.2188C54.0521 26.3646 55 28.875 55 31.75C55 33.375 54.6875 34.8854 54.0625 36.2812C53.4375 37.6771 52.5833 38.875 51.5 39.875Z" fill="#38BDF8"/>
<rect x="15.5" y="57.5" width="8" height="8" rx="4" fill="#0284C7"/>
<rect x="31.5" y="57.5" width="8" height="8" rx="4" fill="#0284C7"/>
<rect opacity="0.5" x="19.5" y="73.5" width="16" height="4" rx="2" fill="#0284C7"/>
</svg>
