<svg width="252" height="55" viewBox="0 0 252 55" fill="none" xmlns="http://www.w3.org/2000/svg">
<path d="M28.672 47.04C21.84 47.04 16.3147 46.0506 12.096 44.072C7.87734 42.0933 4.79734 39.3306 2.856 35.784C0.952003 32.2 2.48104e-06 28.056 2.48104e-06 23.352C2.48104e-06 18.536 0.933336 14.4293 2.8 11.032C4.66667 7.63462 7.24267 5.03995 10.528 3.24795C13.8507 1.45595 17.6587 0.559955 21.952 0.559955C24.9013 0.559955 27.4213 0.858621 29.512 1.45595C31.6027 2.05329 33.208 3.07995 34.328 4.53595C35.4853 5.99195 36.0827 8.00795 36.12 10.584C36.6427 9.16529 36.8293 7.72795 36.68 6.27196C36.568 4.77862 36.4373 3.28529 36.288 1.79195C38.08 1.75462 40.1147 1.71729 42.392 1.67995C44.6693 1.60529 46.8907 1.53062 49.056 1.45595C51.2213 1.38129 53.0507 1.34396 54.544 1.34396C54.8053 2.50129 55.0107 3.95729 55.16 5.71196C55.3093 7.42929 55.384 9.27729 55.384 11.256C55.4213 13.2346 55.384 15.176 55.272 17.08C55.16 18.984 54.9733 20.6826 54.712 22.176C53.5547 22.3626 52.0987 22.512 50.344 22.624C48.5893 22.736 46.6853 22.8106 44.632 22.848C42.616 22.848 40.6 22.848 38.584 22.848C36.6053 22.8106 34.776 22.736 33.096 22.624C31.416 22.512 30.0347 22.3626 28.952 22.176L28.896 19.88H25.928V27.104H28.896V24.472C33.2267 24.248 37.4827 24.136 41.664 24.136C45.8827 24.136 50.3627 24.248 55.104 24.472C54.9173 29.5866 53.8907 33.824 52.024 37.184C50.1947 40.5066 47.376 42.9893 43.568 44.632C39.76 46.2373 34.7947 47.04 28.672 47.04ZM57.7242 46.032C57.4255 45.2853 57.1829 44.3333 56.9962 43.176C56.8095 41.9813 56.6975 40.7306 56.6602 39.424C56.6602 38.1173 56.6975 36.8853 56.7722 35.728C56.8842 34.5333 57.0709 33.5626 57.3322 32.816C57.8922 32.592 58.4335 32.2186 58.9562 31.696C59.4789 31.136 59.9082 30.184 60.2442 28.84C60.5802 27.496 60.7482 25.5733 60.7482 23.072C60.7482 20.496 60.5429 18.5733 60.1322 17.304C59.7589 15.9973 59.2922 15.1013 58.7322 14.616C58.2095 14.0933 57.7429 13.7386 57.3322 13.552C56.9962 12.9173 56.7535 12.0213 56.6042 10.864C56.4549 9.66929 56.3802 8.39996 56.3802 7.05595C56.4175 5.67462 56.5295 4.36796 56.7162 3.13596C56.9029 1.86662 57.1829 0.821286 57.5562 -4.76837e-05C58.6389 0.111953 59.9829 0.24262 61.5882 0.391954C63.1935 0.503955 64.9295 0.615954 66.7962 0.727953C68.7002 0.802621 70.5482 0.839955 72.3402 0.839955C74.9909 0.839955 77.3989 0.765288 79.5642 0.615954C81.7669 0.429288 83.6522 0.261288 85.2202 0.111954C85.5562 1.15729 85.7989 2.16529 85.9482 3.13596C86.0975 4.06929 86.1722 5.02129 86.1722 5.99196C86.1722 7.74662 85.9855 9.48262 85.6122 11.2C85.2762 12.88 84.9215 14.7093 84.5482 16.688C84.2122 18.6293 84.0442 20.9066 84.0442 23.52C84.0442 25.872 84.2122 27.6826 84.5482 28.952C84.8842 30.2213 85.3135 31.136 85.8362 31.696C86.3589 32.2186 86.9002 32.592 87.4602 32.816C87.7962 33.9733 88.0015 35.4106 88.0762 37.128C88.1509 38.808 88.0949 40.4693 87.9082 42.112C87.7589 43.7173 87.4789 45.024 87.0682 46.032C86.0229 45.92 84.6789 45.7893 83.0362 45.64C81.3935 45.528 79.6389 45.416 77.7722 45.304C75.9055 45.2293 74.0949 45.192 72.3402 45.192C70.5482 45.192 68.7189 45.2293 66.8522 45.304C65.0229 45.416 63.3055 45.528 61.7002 45.64C60.0949 45.7893 58.7695 45.92 57.7242 46.032ZM113.475 47.04C96.4135 47.04 87.8828 40.096 87.8828 26.208C87.8828 18.6293 90.0295 13.0666 94.3228 9.51995C98.6535 5.97329 105.131 4.19995 113.755 4.19995C122.901 4.19995 129.547 5.95462 133.691 9.46395C137.872 12.936 139.963 18.0693 139.963 24.864C139.963 32.5173 137.76 38.136 133.355 41.72C128.949 45.2666 122.323 47.04 113.475 47.04ZM112.411 28.672H115.435V22.568H112.411V28.672ZM160.078 46.984C156.158 46.984 152.779 46.144 149.942 44.464C147.104 42.7466 144.92 40.2826 143.39 37.072C141.859 33.8613 141.094 29.9973 141.094 25.48C141.094 18.9466 142.475 13.9066 145.238 10.36C148.038 6.77596 152.088 4.98395 157.39 4.98395C159.928 4.98395 162.318 5.65596 164.558 6.99996C166.798 8.30662 168.776 9.91195 170.494 11.816L171.726 10.752C170.904 9.81862 169.934 8.88529 168.814 7.95195C167.694 6.98129 166.144 5.97329 164.166 4.92796C164.24 3.99462 164.371 3.07995 164.558 2.18395C164.744 1.28795 164.968 0.559954 165.23 -4.76837e-05C166.835 0.149286 168.944 0.335954 171.558 0.559955C174.171 0.746622 176.84 0.839955 179.566 0.839955C182.216 0.839955 184.624 0.765288 186.79 0.615954C188.992 0.429288 190.878 0.261288 192.446 0.111954C192.782 1.15729 193.024 2.16529 193.174 3.13596C193.323 4.06929 193.398 5.02129 193.398 5.99196C193.398 7.74662 193.211 9.48262 192.838 11.2C192.502 12.88 192.147 14.7093 191.774 16.688C191.438 18.6293 191.27 20.9066 191.27 23.52C191.27 25.872 191.438 27.6826 191.774 28.952C192.11 30.2213 192.539 31.136 193.062 31.696C193.584 32.2186 194.126 32.592 194.686 32.816C195.022 34.0853 195.227 35.56 195.302 37.24C195.376 38.92 195.339 40.5626 195.19 42.168C195.04 43.736 194.76 45.024 194.35 46.032C192.856 45.8453 191.251 45.6773 189.534 45.528C187.816 45.3786 185.968 45.2853 183.99 45.248C182.086 45.2106 180.48 45.2106 179.174 45.248C177.867 45.2853 176.747 45.3413 175.814 45.416C174.88 45.4906 173.966 45.5653 173.07 45.64C173.518 45.08 173.872 44.352 174.134 43.456C174.432 42.5226 174.619 41.552 174.694 40.544C174.806 39.536 174.824 38.6213 174.75 37.8C174.339 39.368 173.592 40.8613 172.51 42.28C171.427 43.6613 169.878 44.7813 167.862 45.64C165.883 46.536 163.288 46.984 160.078 46.984ZM165.622 28.224H168.646V23.016H165.622V28.224ZM213.73 54.768C210.519 54.768 207.887 54.432 205.834 53.76C203.781 53.088 202.175 52.192 201.018 51.072C199.861 49.9893 199.039 48.7946 198.554 47.488C198.106 46.2186 197.882 44.9493 197.882 43.68C197.882 41.3653 198.367 39.4986 199.338 38.08C200.346 36.6613 201.559 35.6346 202.978 35C204.397 34.328 205.722 33.992 206.954 33.992C207.551 33.992 208.298 34.104 209.194 34.328C210.09 34.5146 211.023 34.888 211.994 35.448C213.002 35.9706 213.917 36.7733 214.738 37.856L215.914 36.848C214.757 35.392 213.45 34.2906 211.994 33.544C210.538 32.7973 209.063 32.3493 207.57 32.2C206.487 32.088 205.461 31.808 204.49 31.36C203.519 30.912 202.642 30.1653 201.858 29.12C201.074 28.0373 200.421 26.5253 199.898 24.584C199.338 22.4933 198.647 21.0186 197.826 20.16C197.042 19.264 196.202 18.7973 195.306 18.76C195.007 18.1253 194.783 17.2293 194.634 16.072C194.485 14.8773 194.41 13.608 194.41 12.264C194.447 10.8826 194.559 9.55729 194.746 8.28796C194.933 7.01862 195.194 5.97329 195.53 5.15195C196.949 5.26395 198.946 5.41329 201.522 5.59995C204.135 5.78662 207.047 5.87995 210.258 5.87995C212.685 5.87995 215.037 5.78662 217.314 5.59995C219.629 5.41329 221.495 5.26395 222.914 5.15195C222.317 7.57862 222.074 10.2106 222.186 13.048C222.335 15.8853 222.746 18.76 223.418 21.672C224.09 24.584 224.893 27.384 225.826 30.072L225.77 18.424H224.202C223.791 15.6613 223.661 13.16 223.81 10.92C223.959 8.67996 224.239 6.75729 224.65 5.15195C225.621 5.26395 226.647 5.37595 227.73 5.48796C228.85 5.59995 230.25 5.69329 231.93 5.76795C233.61 5.84262 235.775 5.87995 238.426 5.87995C239.546 5.87995 240.815 5.84262 242.234 5.76795C243.69 5.65595 245.109 5.54395 246.49 5.43196C247.909 5.31996 249.085 5.22662 250.018 5.15195C250.354 5.97329 250.597 7.01862 250.746 8.28796C250.933 9.55729 251.026 10.8826 251.026 12.264C251.026 13.608 250.951 14.8773 250.802 16.072C250.653 17.2293 250.429 18.1253 250.13 18.76C249.01 18.7973 248.151 19.3386 247.554 20.384C246.957 21.4293 246.453 22.848 246.042 24.64C245.669 26.3946 245.202 28.3733 244.642 30.576C243.709 34.8693 242.495 38.5466 241.002 41.608C239.509 44.6693 237.586 47.1706 235.234 49.112C232.882 51.0533 229.951 52.472 226.442 53.368C222.97 54.3013 218.733 54.768 213.73 54.768Z" fill="#0284C7"/>
</svg>
