<svg width="21" height="20" viewBox="0 0 21 20" fill="none" xmlns="http://www.w3.org/2000/svg">
<path d="M10.8688 20C8.279 20 6.18448 19.5743 4.58529 18.7229C2.9861 17.8715 1.81855 16.6827 1.08264 15.1566C0.36088 13.6145 0 11.8313 0 9.80723C0 7.73494 0.353803 5.96787 1.06141 4.50602C1.76902 3.04418 2.74551 1.92771 3.9909 1.15663C5.25044 0.385542 6.69396 0 8.32146 0C9.43948 0 10.3947 0.128514 11.1873 0.385541C11.9798 0.64257 12.5883 1.08434 13.0129 1.71084C13.4516 2.33735 13.678 3.20482 13.6922 4.31325C13.8903 3.70281 13.9611 3.08434 13.9045 2.45783C13.862 1.81526 13.8125 1.17269 13.7559 0.530119C14.4352 0.514055 15.2065 0.497991 16.0697 0.481927C16.933 0.449799 17.7751 0.41767 18.5959 0.385541C19.4167 0.353413 20.1102 0.33735 20.6763 0.33735C20.7753 0.835341 20.8532 1.46185 20.9098 2.21687C20.9664 2.95582 20.9947 3.751 20.9947 4.60241C21.0088 5.45382 20.9947 6.28916 20.9522 7.10843C20.9098 7.92771 20.839 8.65864 20.74 9.30121C20.3012 9.38153 19.7493 9.44578 19.0842 9.49398C18.419 9.54217 17.6972 9.5743 16.9189 9.59036C16.1547 9.59036 15.3904 9.59036 14.6262 9.59036C13.8762 9.5743 13.1827 9.54217 12.5459 9.49398C11.909 9.44578 11.3854 9.38153 10.975 9.30121L10.9538 8.31325H9.82866V11.4217H10.9538V10.2892C12.5954 10.1928 14.2087 10.1446 15.7938 10.1446C17.393 10.1446 19.0912 10.1928 20.8886 10.2892C20.8178 12.49 20.4286 14.3133 19.721 15.759C19.0275 17.1888 17.9591 18.257 16.5155 18.9639C15.072 19.6546 13.1898 20 10.8688 20Z" fill="#0284C7"/>
</svg>
