<svg width="33" height="30" viewBox="0 0 33 30" fill="none" xmlns="http://www.w3.org/2000/svg">
<path d="M8.25 30C5.975 30 4.03125 29.2125 2.41875 27.6375C0.80625 26.0625 0 24.1375 0 21.8625C0 19.9125 0.5875 18.175 1.7625 16.65C2.9375 15.125 4.475 14.15 6.375 13.725C7 11.425 8.25 9.5625 10.125 8.1375C12 6.7125 14.125 6 16.5 6C17.275 6 18.025 6.09167 18.75 6.275C18.5833 5.30833 18.625 4.34167 18.875 3.375C18.9583 3.075 19.1417 2.87083 19.425 2.7625C19.7083 2.65417 19.9833 2.68333 20.25 2.85C21.5833 3.6 22.6583 4.60417 23.475 5.8625C24.2917 7.12083 24.7 8.5 24.7 10C24.7 10.2667 24.6833 10.525 24.65 10.775C25.8 11.1917 26.75 11.9 27.5 12.9C28.25 13.9 28.625 15.025 28.625 16.275C28.625 17.9917 28.025 19.4583 26.825 20.675C25.625 21.8917 24.175 22.5 22.475 22.5H8.25V30ZM8.25 27H22.5C23.3833 27 24.1417 26.6833 24.775 26.05C25.4083 25.4167 25.725 24.65 25.725 23.75C25.725 22.8667 25.4083 22.1167 24.775 21.5C24.1417 20.8833 23.3833 20.575 22.5 20.575H20.25V19.25C20.25 17.625 19.6833 16.2333 18.55 15.075C17.4167 13.9167 16.0583 13.3375 14.475 13.3375C13.4583 13.3375 12.5167 13.5875 11.65 14.0875C10.7833 14.5875 10.0833 15.2833 9.55 16.175L9.075 17H8.25C6.7 17 5.36667 17.5417 4.25 18.625C3.13333 19.7083 2.575 21.0333 2.575 22.6C2.575 24.1 3.1 25.3917 4.15 26.475C5.2 27.5583 6.5833 28.1 8.25 28V27ZM20.25 10.025C20.25 9.175 20.025 8.4 19.575 7.7C19.125 7 18.5083 6.45833 17.725 6.075C17.8583 6.6917 17.925 7.33333 17.925 8C17.925 9.11667 17.725 10.1833 17.325 11.2C17.8917 10.8833 18.5083 10.675 19.175 10.575C19.5583 10.5083 19.9167 10.475 20.25 10.475V10.025Z" fill="currentColor"/>
</svg>
