<svg width="28" height="30" viewBox="0 0 28 30" fill="none" xmlns="http://www.w3.org/2000/svg">
<path d="M14.5 28C11.0667 28 8.16667 26.8 5.8 24.4C3.43333 21.9667 2.25 19.0333 2.25 15.6C2.25 12.5667 3.21667 9.9 5.15 7.6C7.08333 5.3 9.58333 3.88333 12.65 3.35C12.8833 3.31667 13.0833 3.38333 13.25 3.55C13.4167 3.71667 13.4667 3.93333 13.4 4.2C12.9333 5.63333 12.8667 7.1 13.2 8.6C13.5333 10.1 14.2333 11.4 15.3 12.5C16.3667 13.6 17.65 14.3333 19.15 14.7C20.65 15.0667 22.1167 15.0333 23.55 14.6C23.8167 14.5333 24.05 14.5833 24.25 14.75C24.45 14.9167 24.5333 15.1167 24.5 15.35C24.0333 18.4167 22.6167 20.9167 20.25 22.85C17.8833 24.7833 15.2 25.8667 12.2 26.1C12.4667 26.3667 12.7667 26.6 13.1 26.8C13.4333 27 13.8 27.1667 14.2 27.3C14.5667 27.4 14.8667 27.5667 15.1 27.8C15.3333 28.0333 15.3667 28.2667 15.2 28.5C15.0333 28.7 14.8333 28.7667 14.6 28.7C14.6 28.7 14.5667 28.7 14.5 28.7V28Z" fill="currentColor"/>
</svg>
