<svg width="30" height="31" viewBox="0 0 30 31" fill="none" xmlns="http://www.w3.org/2000/svg">
<path d="M17.925 29.85C17.55 30.05 17.1688 30.0813 16.7812 29.9438C16.3937 29.8062 16.1 29.55 15.9 29.175L13.65 24.675C13.45 24.3 13.4187 23.9188 13.5562 23.5312C13.6937 23.1437 13.95 22.85 14.325 22.65C14.7 22.45 15.0813 22.4187 15.4688 22.5562C15.8562 22.6938 16.15 22.95 16.35 23.325L18.6 27.825C18.8 28.2 18.8313 28.5812 18.6938 28.9688C18.5562 29.3563 18.3 29.65 17.925 29.85ZM26.925 29.85C26.55 30.05 26.1688 30.0813 25.7812 29.9438C25.3937 29.8062 25.1 29.55 24.9 29.175L22.65 24.675C22.45 24.3 22.4187 23.9188 22.5562 23.5312C22.6938 23.1437 22.95 22.85 23.325 22.65C23.7 22.45 24.0812 22.4187 24.4688 22.5562C24.8563 22.6938 25.15 22.95 25.35 23.325L27.6 27.825C27.8 28.2 27.8313 28.5812 27.6938 28.9688C27.5562 29.3563 27.3 29.65 26.925 29.85ZM8.925 29.85C8.55 30.05 8.16875 30.0813 7.78125 29.9438C7.39375 29.8062 7.1 29.55 6.9 29.175L4.65 24.675C4.45 24.3 4.41875 23.9188 4.55625 23.5312C4.69375 23.1437 4.95 22.85 5.325 22.65C5.7 22.45 6.08125 22.4187 6.46875 22.5562C6.85625 22.6938 7.15 22.95 7.35 23.325L9.6 27.825C9.8 28.2 9.83125 28.5812 9.69375 28.9688C9.55625 29.3563 9.3 29.65 8.925 29.85ZM8.25 21C5.975 21 4.03125 20.1937 2.41875 18.5812C0.80625 16.9688 0 15.025 0 12.75C0 10.675 0.6875 8.8625 2.0625 7.3125C3.4375 5.7625 5.1375 4.85 7.1625 4.575C7.9625 3.15 9.05625 2.03125 10.4438 1.21875C11.8313 0.40625 13.35 0 15 0C17.25 0 19.2062 0.71875 20.8687 2.15625C22.5312 3.59375 23.5375 5.3875 23.8875 7.5375C25.6125 7.6875 27.0625 8.4 28.2375 9.675C29.4125 10.95 30 12.475 30 14.25C30 16.125 29.3438 17.7188 28.0312 19.0312C26.7188 20.3438 25.125 21 23.25 21H8.25Z" fill="currentColor"/>
</svg>
