<svg width="32" height="30" viewBox="0 0 32 30" fill="none" xmlns="http://www.w3.org/2000/svg">
<path d="M6 28.5C4.35 28.5 2.9375 27.9125 1.7625 26.7375C0.5875 25.5625 0 24.15 0 22.5C0 20.85 0.5875 19.4375 1.7625 18.2625C2.9375 17.0875 4.35 16.5 6 16.5C7.2 16.5 8.30625 16.825 9.31875 17.475C10.3313 18.125 11.0625 19.0125 11.5125 20.1375L11.8875 21H12.7875C13.8375 21 14.7188 21.3625 15.4312 22.0875C16.1437 22.8125 16.5 23.7 16.5 24.75C16.5 25.8 16.1375 26.6875 15.4125 27.4125C14.6875 28.1375 13.8 28.5 12.75 28.5H6ZM19.4625 24.3C19.3625 22.725 18.7938 21.3625 17.7563 20.2125C16.7188 19.0625 15.4125 18.35 13.8375 18.075C13.0625 16.725 12.0188 15.6562 10.7063 14.8687C9.39375 14.0812 7.95 13.625 6.375 13.5C7.025 11.675 8.1375 10.2188 9.7125 9.13125C11.2875 8.04375 13.05 7.5 15 7.5C17.5 7.5 19.625 8.375 21.375 10.125C23.125 11.875 24 14 24 16.5C24 18.125 23.6 19.6312 22.8 21.0187C22 22.4062 20.8875 23.5 19.4625 24.3ZM13.5 6V0H16.5V6H13.5ZM23.475 10.125L21.375 8.025L25.575 3.75L27.7125 5.8875L23.475 10.125ZM25.5 18V15H31.5V18H25.5ZM25.575 29.25L21.375 24.975L23.475 22.875L27.75 27.075L25.575 29.25ZM6.525 10.125L2.2875 5.8875L4.425 3.75L8.625 8.025L6.525 10.125Z" fill="currentColor"/>
</svg>
