<svg width="30" height="32" viewBox="0 0 30 32" fill="none" xmlns="http://www.w3.org/2000/svg">
<path d="M8.25 31.5L9.6 27.75H6.75L8.625 22.5H12.375L10.7625 26.25H13.875L9.75 31.5H8.25ZM18.375 30L19.425 27H16.5L18.1125 22.5H21.8625L20.55 25.5H23.625L19.875 30H18.375ZM8.25 21C5.975 21 4.03125 20.1937 2.41875 18.5812C0.80625 16.9688 0 15.025 0 12.75C0 10.675 0.6875 8.8625 2.0625 7.3125C3.4375 5.7625 5.1375 4.85 7.1625 4.575C7.9625 3.15 9.05625 2.03125 10.4438 1.21875C11.8313 0.40625 13.35 0 15 0C17.25 0 19.2062 0.71875 20.8687 2.15625C22.5312 3.59375 23.5375 5.3875 23.8875 7.5375C25.6125 7.6875 27.0625 8.4 28.2375 9.675C29.4125 10.95 30 12.475 30 14.25C30 16.125 29.3438 17.7188 28.0312 19.0312C26.7188 20.3438 25.125 21 23.25 21H8.25Z" fill="currentColor"/>
</svg>
