<svg width="30" height="26" viewBox="0 0 30 26" fill="none" xmlns="http://www.w3.org/2000/svg">
<path d="M14.25 26C13 26 11.9375 25.5539 11.0625 24.6618C10.1875 23.7696 9.75 22.6863 9.75 21.4118H12.75C12.75 21.8451 12.8938 22.2083 13.1813 22.5015C13.4688 22.7946 13.825 22.9412 14.25 22.9412C14.675 22.9412 15.0312 22.7946 15.3187 22.5015C15.6062 22.2083 15.75 21.8451 15.75 21.4118C15.75 20.9784 15.6062 20.6152 15.3187 20.3221C15.0312 20.0289 14.675 19.8824 14.25 19.8824H0V16.8235H14.25C15.5 16.8235 16.5625 17.2696 17.4375 18.1618C18.3125 19.0539 18.75 20.1373 18.75 21.4118C18.75 22.6863 18.3125 23.7696 17.4375 24.6618C16.5625 25.5539 15.5 26 14.25 26ZM0 10.7059V7.64706H20.25C20.9 7.64706 21.4375 7.43039 21.8625 6.99706C22.2875 6.56373 22.5 6.01569 22.5 5.35294C22.5 4.6902 22.2875 4.14216 21.8625 3.70882C21.4375 3.27549 20.9 3.05882 20.25 3.05882C19.6 3.05882 19.0625 3.27549 18.6375 3.70882C18.2125 4.14216 18 4.6902 18 5.35294H15C15 3.84902 15.5062 2.58088 16.5187 1.54853C17.5312 0.516177 18.775 0 20.25 0C21.725 0 22.9688 0.516177 23.9813 1.54853C24.9937 2.58088 25.5 3.84902 25.5 5.35294C25.5 6.85686 24.9937 8.125 23.9813 9.15735C22.9688 10.1897 21.725 10.7059 20.25 10.7059H0ZM24.75 22.9412V19.8824C25.4 19.8824 25.9375 19.6657 26.3625 19.2324C26.7875 18.799 27 18.251 27 17.5882C27 16.9255 26.7875 16.3775 26.3625 15.9441C25.9375 15.5108 25.4 15.2941 24.75 15.2941H0V12.2353H24.75C26.225 12.2353 27.4687 12.7515 28.4812 13.7838C29.4937 14.8162 30 16.0843 30 17.5882C30 19.0922 29.4937 20.3603 28.4812 21.3926C27.4687 22.425 26.225 22.9412 24.75 22.9412Z" fill="#366E62"/>
</svg>
